<?xml version="1.0" standalone="no"?>
<svg xmlns:xlink="http://www.w3.org/1999/xlink" id="wave" style="transform:rotate(0deg); transition: 0.3s" viewBox="0 0 1440 270" version="1.1" xmlns="http://www.w3.org/2000/svg"><defs><linearGradient id="sw-gradient-0" x1="0" x2="0" y1="1" y2="0"><stop stop-color="rgba(70, 82, 62, 1)" offset="0%"/><stop stop-color="rgba(70, 82, 62, 1)" offset="100%"/></linearGradient></defs><path style="transform:translate(0, 0px); opacity:1" fill="url(#sw-gradient-0)" d="M0,135L40,153C80,171,160,207,240,189C320,171,400,99,480,94.5C560,90,640,153,720,171C800,189,880,162,960,157.5C1040,153,1120,171,1200,171C1280,171,1360,153,1440,157.5C1520,162,1600,189,1680,166.5C1760,144,1840,72,1920,40.5C2000,9,2080,18,2160,27C2240,36,2320,45,2400,76.5C2480,108,2560,162,2640,180C2720,198,2800,180,2880,162C2960,144,3040,126,3120,135C3200,144,3280,180,3360,184.5C3440,189,3520,162,3600,153C3680,144,3760,153,3840,144C3920,135,4000,108,4080,112.5C4160,117,4240,153,4320,180C4400,207,4480,225,4560,193.5C4640,162,4720,81,4800,45C4880,9,4960,18,5040,22.5C5120,27,5200,27,5280,36C5360,45,5440,63,5520,94.5C5600,126,5680,171,5720,193.5L5760,216L5760,270L5720,270C5680,270,5600,270,5520,270C5440,270,5360,270,5280,270C5200,270,5120,270,5040,270C4960,270,4880,270,4800,270C4720,270,4640,270,4560,270C4480,270,4400,270,4320,270C4240,270,4160,270,4080,270C4000,270,3920,270,3840,270C3760,270,3680,270,3600,270C3520,270,3440,270,3360,270C3280,270,3200,270,3120,270C3040,270,2960,270,2880,270C2800,270,2720,270,2640,270C2560,270,2480,270,2400,270C2320,270,2240,270,2160,270C2080,270,2000,270,1920,270C1840,270,1760,270,1680,270C1600,270,1520,270,1440,270C1360,270,1280,270,1200,270C1120,270,1040,270,960,270C880,270,800,270,720,270C640,270,560,270,480,270C400,270,320,270,240,270C160,270,80,270,40,270L0,270Z"/></svg>